<svg xmlns="http://www.w3.org/2000/svg" viewBox="0 0 100 80"><g fill="#2A2F3A" fill-rule="evenodd"><path fill-rule="nonzero" d="M72.78 47.24c.65-5.72.39-11.62-2.26-11.2-4.53.7-4.4-14.74-7-14.74-2.62 0-1.67 5.81-4.4 5.81-4.82 0-3.3-16.08-6.34-17.43-3.05-1.35-3.02 15.27-7.83 6.62-4.82-8.65-2.48 9.06-9.63 8.25-7.15-.81.55 20.81-6.46 17.97-3.56-1.44-1.96 8.8.7 15.03 6.5 1.35 15.07 1.09 24.04-1.32 7.55-2.02 14.25-5.27 19.18-9zM69.44 58.7C65.52 65.16 61.24 69 50.9 69c-4.32 0-9.1-.48-13.26-2.62 5.65.04 11.78-.74 18.03-2.42a69.95 69.95 0 0 0 13.77-5.26z"/><path d="M82.9 39.09a5.5 5.5 0 1 1 3.09.32c-3.27 9.2-15.54 18-30.97 22.14-20.22 5.41-39.15 1.1-42.2-10.27-1.86-6.98 2.78-14.83 11.9-21.18a1.5 1.5 0 1 1 1.7 2.46c-8.18 5.7-12.17 12.44-10.7 17.95 2.49 9.26 19.7 13.18 38.53 8.14 14.17-3.8 25.4-11.68 28.65-19.56zM85 36.5a2.5 2.5 0 1 0 0-5 2.5 2.5 0 0 0 0 5z"/></g></svg>
